<svg width="77" height="81" viewBox="0 0 77 81" fill="none" xmlns="http://www.w3.org/2000/svg">
<path d="M12 0.5H65C71.3513 0.5 76.5 5.64873 76.5 12V69C76.5 75.3513 71.3513 80.5 65 80.5H12C5.64873 80.5 0.5 75.3513 0.5 69V12C0.5 5.64873 5.64873 0.5 12 0.5Z" fill="#F7F9FF"/>
<path d="M12 0.5H65C71.3513 0.5 76.5 5.64873 76.5 12V69C76.5 75.3513 71.3513 80.5 65 80.5H12C5.64873 80.5 0.5 75.3513 0.5 69V12C0.5 5.64873 5.64873 0.5 12 0.5Z" stroke="#C1BCBC"/>
<path d="M8.5 40.5C8.5 25.8865 8.5 18.5797 12.8934 14.0398C17.2868 9.5 24.3579 9.5 38.5 9.5C52.6421 9.5 59.7132 9.5 64.1066 14.0398C68.5 18.5797 68.5 25.8865 68.5 40.5C68.5 55.1135 68.5 62.4203 64.1066 66.9602C59.7132 71.5 52.6421 71.5 38.5 71.5C24.3579 71.5 17.2868 71.5 12.8934 66.9602C8.5 62.4203 8.5 55.1135 8.5 40.5Z" stroke="#56AD60" stroke-width="3"/>
<path d="M29.0263 40.5L47.9739 40.5001" stroke="#56AD60" stroke-width="3" stroke-linecap="round" stroke-linejoin="round"/>
<path d="M32.1842 51.921H44.8158" stroke="#56AD60" stroke-width="3" stroke-linecap="round" stroke-linejoin="round"/>
<path d="M25.8684 29.079H51.1316" stroke="#56AD60" stroke-width="3" stroke-linecap="round" stroke-linejoin="round"/>
</svg>
